<mxfile host="app.diagrams.net" agent="Mozilla/5.0 (Windows NT 10.0; Win64; x64) AppleWebKit/537.36 (KHTML, like Gecko) Chrome/129.0.0.0 Safari/537.36" version="24.8.0">
  <diagram name="Страница-1" id="2eRdzC0DgHLNjn0G9G1m">
    <mxGraphModel dx="1434" dy="780" grid="1" gridSize="10" guides="1" tooltips="1" connect="1" arrows="1" fold="1" page="1" pageScale="1" pageWidth="827" pageHeight="1169" math="0" shadow="0">
      <root>
        <mxCell id="0" />
        <mxCell id="1" parent="0" />
        <mxCell id="yxNfa2Mh4-2jATXLoK_B-2" style="edgeStyle=orthogonalEdgeStyle;rounded=0;orthogonalLoop=1;jettySize=auto;html=1;" parent="1" edge="1">
          <mxGeometry relative="1" as="geometry">
            <mxPoint x="729.9999999999995" y="230" as="sourcePoint" />
            <mxPoint x="729.9999999999995" y="250" as="targetPoint" />
          </mxGeometry>
        </mxCell>
        <mxCell id="Y6Pu--dFCFH1_GHjfbmQ-5" value="" style="group" vertex="1" connectable="0" parent="1">
          <mxGeometry x="90" y="100" width="700" height="280" as="geometry" />
        </mxCell>
        <mxCell id="yxNfa2Mh4-2jATXLoK_B-3" value="" style="rounded=1;whiteSpace=wrap;html=1;" parent="Y6Pu--dFCFH1_GHjfbmQ-5" vertex="1">
          <mxGeometry x="10" y="-60" width="550" height="340" as="geometry" />
        </mxCell>
        <mxCell id="Y6Pu--dFCFH1_GHjfbmQ-4" value="File: src/app/store.js" style="text;html=1;align=center;verticalAlign=middle;whiteSpace=wrap;rounded=0;fontStyle=1;fontSize=14;" vertex="1" parent="Y6Pu--dFCFH1_GHjfbmQ-5">
          <mxGeometry x="20" width="140" height="30" as="geometry" />
        </mxCell>
        <mxCell id="Y6Pu--dFCFH1_GHjfbmQ-6" value="&lt;span style=&quot;box-sizing: border-box; color: rgb(248, 248, 242); font-family: SFMono-Regular, Menlo, Monaco, Consolas, &amp;quot;Liberation Mono&amp;quot;, &amp;quot;Courier New&amp;quot;, monospace; font-size: 16.15px; text-align: start; white-space: pre; background-color: rgb(39, 40, 34);&quot; class=&quot;token-line&quot;&gt;&lt;span style=&quot;box-sizing: border-box; color: rgb(249, 38, 114);&quot; class=&quot;token keyword&quot;&gt;import&lt;/span&gt;&lt;span style=&quot;box-sizing: border-box;&quot; class=&quot;token plain&quot;&gt; &lt;/span&gt;&lt;span style=&quot;box-sizing: border-box;&quot; class=&quot;token punctuation&quot;&gt;{&lt;/span&gt;&lt;span style=&quot;box-sizing: border-box;&quot; class=&quot;token plain&quot;&gt; configureStore &lt;/span&gt;&lt;span style=&quot;box-sizing: border-box;&quot; class=&quot;token punctuation&quot;&gt;}&lt;/span&gt;&lt;span style=&quot;box-sizing: border-box;&quot; class=&quot;token plain&quot;&gt; &lt;/span&gt;&lt;span style=&quot;box-sizing: border-box; color: rgb(249, 38, 114);&quot; class=&quot;token keyword&quot;&gt;from&lt;/span&gt;&lt;span style=&quot;box-sizing: border-box;&quot; class=&quot;token plain&quot;&gt; &lt;/span&gt;&lt;span style=&quot;box-sizing: border-box; color: rgb(166, 226, 46);&quot; class=&quot;token string&quot;&gt;&#39;@reduxjs/toolkit&#39;&lt;/span&gt;&lt;span style=&quot;box-sizing: border-box;&quot; class=&quot;token plain&quot;&gt;&lt;/span&gt;&lt;br style=&quot;box-sizing: border-box;&quot;&gt;&lt;/span&gt;&lt;span style=&quot;box-sizing: border-box; color: rgb(248, 248, 242); font-family: SFMono-Regular, Menlo, Monaco, Consolas, &amp;quot;Liberation Mono&amp;quot;, &amp;quot;Courier New&amp;quot;, monospace; font-size: 16.15px; text-align: start; white-space: pre; background-color: rgb(39, 40, 34);&quot; class=&quot;token-line&quot;&gt;&lt;span style=&quot;box-sizing: border-box; display: inline-block;&quot; class=&quot;token plain&quot;&gt;&lt;/span&gt;&lt;br style=&quot;box-sizing: border-box;&quot;&gt;&lt;/span&gt;&lt;span style=&quot;box-sizing: border-box; color: rgb(248, 248, 242); font-family: SFMono-Regular, Menlo, Monaco, Consolas, &amp;quot;Liberation Mono&amp;quot;, &amp;quot;Courier New&amp;quot;, monospace; font-size: 16.15px; text-align: start; white-space: pre; background-color: rgb(39, 40, 34);&quot; class=&quot;token-line&quot;&gt;&lt;span style=&quot;box-sizing: border-box;&quot; class=&quot;token plain&quot;&gt;&lt;/span&gt;&lt;span style=&quot;box-sizing: border-box; color: rgb(249, 38, 114);&quot; class=&quot;token keyword&quot;&gt;export&lt;/span&gt;&lt;span style=&quot;box-sizing: border-box;&quot; class=&quot;token plain&quot;&gt; &lt;/span&gt;&lt;span style=&quot;box-sizing: border-box; color: rgb(249, 38, 114);&quot; class=&quot;token keyword&quot;&gt;const&lt;/span&gt;&lt;span style=&quot;box-sizing: border-box;&quot; class=&quot;token plain&quot;&gt; store &lt;/span&gt;&lt;span style=&quot;box-sizing: border-box;&quot; class=&quot;token operator&quot;&gt;=&lt;/span&gt;&lt;span style=&quot;box-sizing: border-box;&quot; class=&quot;token plain&quot;&gt; &lt;/span&gt;&lt;span style=&quot;box-sizing: border-box; color: rgb(230, 216, 116);&quot; class=&quot;token function&quot;&gt;configureStore&lt;/span&gt;&lt;span style=&quot;box-sizing: border-box;&quot; class=&quot;token punctuation&quot;&gt;(&lt;/span&gt;&lt;span style=&quot;box-sizing: border-box;&quot; class=&quot;token punctuation&quot;&gt;{&lt;/span&gt;&lt;span style=&quot;box-sizing: border-box;&quot; class=&quot;token plain&quot;&gt;&lt;/span&gt;&lt;br style=&quot;box-sizing: border-box;&quot;&gt;&lt;/span&gt;&lt;span style=&quot;box-sizing: border-box; color: rgb(248, 248, 242); font-family: SFMono-Regular, Menlo, Monaco, Consolas, &amp;quot;Liberation Mono&amp;quot;, &amp;quot;Courier New&amp;quot;, monospace; font-size: 16.15px; text-align: start; white-space: pre; background-color: rgb(39, 40, 34);&quot; class=&quot;token-line&quot;&gt;&lt;span style=&quot;box-sizing: border-box;&quot; class=&quot;token plain&quot;&gt;  reducer&lt;/span&gt;&lt;span style=&quot;box-sizing: border-box;&quot; class=&quot;token operator&quot;&gt;:&lt;/span&gt;&lt;span style=&quot;box-sizing: border-box;&quot; class=&quot;token plain&quot;&gt; &lt;/span&gt;&lt;span style=&quot;box-sizing: border-box;&quot; class=&quot;token punctuation&quot;&gt;{&lt;/span&gt;&lt;span style=&quot;box-sizing: border-box;&quot; class=&quot;token punctuation&quot;&gt;}&lt;/span&gt;&lt;span style=&quot;box-sizing: border-box;&quot; class=&quot;token punctuation&quot;&gt;,&lt;/span&gt;&lt;span style=&quot;box-sizing: border-box;&quot; class=&quot;token plain&quot;&gt;&lt;/span&gt;&lt;br style=&quot;box-sizing: border-box;&quot;&gt;&lt;/span&gt;&lt;span style=&quot;box-sizing: border-box; color: rgb(248, 248, 242); font-family: SFMono-Regular, Menlo, Monaco, Consolas, &amp;quot;Liberation Mono&amp;quot;, &amp;quot;Courier New&amp;quot;, monospace; font-size: 16.15px; text-align: start; white-space: pre; background-color: rgb(39, 40, 34);&quot; class=&quot;token-line&quot;&gt;&lt;span style=&quot;box-sizing: border-box;&quot; class=&quot;token plain&quot;&gt;&lt;/span&gt;&lt;span style=&quot;box-sizing: border-box;&quot; class=&quot;token punctuation&quot;&gt;}&lt;/span&gt;&lt;span style=&quot;box-sizing: border-box;&quot; class=&quot;token punctuation&quot;&gt;)&lt;/span&gt;&lt;/span&gt;" style="text;html=1;align=center;verticalAlign=middle;whiteSpace=wrap;rounded=0;" vertex="1" parent="Y6Pu--dFCFH1_GHjfbmQ-5">
          <mxGeometry x="20" y="40" width="460" height="100" as="geometry" />
        </mxCell>
        <mxCell id="Y6Pu--dFCFH1_GHjfbmQ-7" value="&#xa;&lt;span style=&quot;color: rgb(227, 227, 227); font-family: system-ui, -apple-system, &amp;quot;Segoe UI&amp;quot;, Roboto, Ubuntu, Cantarell, &amp;quot;Noto Sans&amp;quot;, sans-serif, BlinkMacSystemFont, &amp;quot;Segoe UI&amp;quot;, Helvetica, Arial, sans-serif, &amp;quot;Apple Color Emoji&amp;quot;, &amp;quot;Segoe UI Emoji&amp;quot;, &amp;quot;Segoe UI Symbol&amp;quot;; font-size: 17px; font-style: normal; font-variant-ligatures: normal; font-variant-caps: normal; font-weight: 400; letter-spacing: normal; orphans: 2; text-align: start; text-indent: 0px; text-transform: none; widows: 2; word-spacing: 0px; -webkit-text-stroke-width: 0px; white-space: normal; background-color: rgb(27, 27, 29); text-decoration-thickness: initial; text-decoration-style: initial; text-decoration-color: initial; display: inline !important; float: none;&quot;&gt;This creates a Redux store, and also automatically configure the Redux DevTools extension so that you can inspect the store while developing.&lt;/span&gt;&#xa;&#xa;" style="text;html=1;align=center;verticalAlign=middle;whiteSpace=wrap;rounded=0;" vertex="1" parent="Y6Pu--dFCFH1_GHjfbmQ-5">
          <mxGeometry x="10" y="200" width="520" height="30" as="geometry" />
        </mxCell>
        <mxCell id="Y6Pu--dFCFH1_GHjfbmQ-3" value="Redux Store" style="text;html=1;align=center;verticalAlign=middle;whiteSpace=wrap;rounded=0;fontStyle=1;fontSize=21;" vertex="1" parent="1">
          <mxGeometry x="290" y="60" width="170" height="30" as="geometry" />
        </mxCell>
        <mxCell id="Y6Pu--dFCFH1_GHjfbmQ-8" value="" style="rounded=1;whiteSpace=wrap;html=1;" vertex="1" parent="1">
          <mxGeometry x="20" y="500" width="760" height="280" as="geometry" />
        </mxCell>
        <mxCell id="Y6Pu--dFCFH1_GHjfbmQ-9" value="" style="endArrow=classic;html=1;rounded=0;entryX=0.318;entryY=0.014;entryDx=0;entryDy=0;entryPerimeter=0;exitX=0.5;exitY=1;exitDx=0;exitDy=0;" edge="1" parent="1" source="yxNfa2Mh4-2jATXLoK_B-3" target="Y6Pu--dFCFH1_GHjfbmQ-8">
          <mxGeometry width="50" height="50" relative="1" as="geometry">
            <mxPoint x="330" y="490" as="sourcePoint" />
            <mxPoint x="440" y="380" as="targetPoint" />
          </mxGeometry>
        </mxCell>
        <mxCell id="Y6Pu--dFCFH1_GHjfbmQ-10" value="" style="endArrow=classic;html=1;rounded=0;exitX=0.5;exitY=1;exitDx=0;exitDy=0;entryX=0.468;entryY=-0.007;entryDx=0;entryDy=0;entryPerimeter=0;" edge="1" parent="1" source="yxNfa2Mh4-2jATXLoK_B-3" target="Y6Pu--dFCFH1_GHjfbmQ-8">
          <mxGeometry width="50" height="50" relative="1" as="geometry">
            <mxPoint x="390" y="430" as="sourcePoint" />
            <mxPoint x="440" y="380" as="targetPoint" />
          </mxGeometry>
        </mxCell>
        <mxCell id="Y6Pu--dFCFH1_GHjfbmQ-11" value="" style="endArrow=classic;html=1;rounded=0;entryX=0.597;entryY=0.011;entryDx=0;entryDy=0;entryPerimeter=0;exitX=0.5;exitY=1;exitDx=0;exitDy=0;" edge="1" parent="1" source="yxNfa2Mh4-2jATXLoK_B-3" target="Y6Pu--dFCFH1_GHjfbmQ-8">
          <mxGeometry width="50" height="50" relative="1" as="geometry">
            <mxPoint x="390" y="430" as="sourcePoint" />
            <mxPoint x="440" y="380" as="targetPoint" />
          </mxGeometry>
        </mxCell>
        <mxCell id="Y6Pu--dFCFH1_GHjfbmQ-12" value="Text" style="text;html=1;align=center;verticalAlign=middle;whiteSpace=wrap;rounded=0;" vertex="1" parent="1">
          <mxGeometry x="380" y="390" width="60" height="30" as="geometry" />
        </mxCell>
        <mxCell id="Y6Pu--dFCFH1_GHjfbmQ-13" value="Slice" style="text;html=1;align=center;verticalAlign=middle;whiteSpace=wrap;rounded=0;fontSize=19;" vertex="1" parent="1">
          <mxGeometry x="320" y="520" width="120" height="30" as="geometry" />
        </mxCell>
      </root>
    </mxGraphModel>
  </diagram>
</mxfile>
